<svg width="16" height="12" viewBox="0 0 16 12" fill="none" xmlns="http://www.w3.org/2000/svg">
<g clip-path="url(#clip0_1125_4224)">
<path d="M11.6951 7.73685C11.952 7.82441 12.152 7.94966 12.2804 8.16521C12.3735 8.32189 12.4073 8.48281 12.2971 8.64672C12.2012 8.78967 12.139 8.80614 11.986 8.72905C11.6702 8.57013 11.3497 8.41919 11.041 8.24754C10.8862 8.16147 10.7563 8.1455 10.6207 8.26675C10.6207 8.269 10.622 8.28122 10.6268 8.28322C11.1715 8.50776 11.588 8.89496 11.972 9.32033C12.1497 9.51618 12.3228 9.71477 12.49 9.91909C12.6746 10.1433 12.9223 10.3091 13.2022 10.3956C13.3944 10.4585 13.5893 10.5204 13.7703 10.6067C14.0987 10.7651 14.3378 11.0093 14.4302 11.3694C14.4731 11.5373 14.4302 11.6909 14.3274 11.8284C14.1875 12.0163 14.117 12.0335 13.9073 11.9282C12.0574 10.9968 10.2072 10.0654 8.35673 9.13396C8.30363 9.11086 8.24688 9.09694 8.18896 9.0928C7.87601 9.05562 7.60393 9.14893 7.32372 9.29239C5.57242 10.1863 3.81326 11.0637 2.05638 11.9464C1.89267 12.0285 1.85561 12.023 1.72922 11.893C1.54241 11.7012 1.50662 11.4769 1.61018 11.2364C1.72972 10.9522 1.95606 10.7243 2.24217 10.5999C2.41565 10.5239 2.59364 10.4581 2.77517 10.4031C3.07096 10.3113 3.33298 10.1364 3.52899 9.90013C3.79778 9.58528 4.07443 9.27642 4.36352 8.97853C4.65261 8.68065 4.99018 8.4369 5.39222 8.27997C5.25465 8.16097 5.13536 8.15149 4.97927 8.23856C4.64931 8.42268 4.30311 8.58035 3.96732 8.75574C3.88813 8.79716 3.83585 8.78319 3.77595 8.73079C3.63305 8.60605 3.59498 8.42767 3.68026 8.24205C3.76887 8.05078 3.92532 7.89779 4.12037 7.81169C4.17316 7.78674 4.22773 7.76554 4.29804 7.73485L0 5.66013C0.594426 3.77676 1.18733 1.89889 1.78353 0.0100312L2.4008 0.198642C1.86297 1.90213 1.32896 3.59439 0.791891 5.29588L1.26474 5.51642C3.47121 6.54364 5.67733 7.57144 7.88312 8.59982C7.91899 8.61928 7.95929 8.62948 8.00025 8.62948C8.04122 8.62948 8.08152 8.61928 8.11739 8.59982C10.4337 7.51871 12.7508 6.43919 15.0688 5.36124C15.1106 5.34178 15.152 5.32183 15.2079 5.29538L13.6002 0.198642L14.216 0.0090332C14.8101 1.8914 15.403 3.76903 16 5.65963L11.6951 7.73685Z" fill="#9C8A4C"/>
<path d="M1.27148 4.88669C1.80068 3.25281 2.32582 1.63191 2.8545 -0.000976562C3.33294 0.322107 3.86213 0.501986 4.41062 0.626978C4.81367 0.718789 5.22561 0.772179 5.62765 0.867482C6.36302 1.03844 7.04669 1.3783 7.6226 1.85919C7.65722 1.88508 7.68488 1.91888 7.70319 1.95766C7.7215 1.99644 7.72991 2.03903 7.72768 2.08173C7.72463 3.98963 7.72387 5.89752 7.72539 7.80542V7.98006C7.36549 7.57066 6.95254 7.27826 6.51548 7.0168C5.58069 6.45745 4.58169 6.02984 3.55908 5.6576C2.83877 5.39514 2.10627 5.16587 1.37935 4.92187L1.27148 4.88669Z" fill="#9C8A4C"/>
<path d="M14.7251 4.87691C14.1159 5.08099 13.5164 5.2716 12.925 5.48067C11.8268 5.86937 10.7491 6.30397 9.7321 6.87429C9.10417 7.22582 8.82066 7.43888 8.2836 7.96355C8.2803 7.91365 8.27573 7.87523 8.27573 7.83706C8.27573 5.9117 8.27489 3.9865 8.27319 2.06147C8.27319 1.97016 8.3105 1.91652 8.37472 1.86313C9.0628 1.29081 9.85621 0.940032 10.7407 0.790341C11.3418 0.68905 11.9392 0.578278 12.5019 0.339021C12.7215 0.245714 12.9306 0.128206 13.1512 0.0184326C13.6742 1.63277 14.1988 3.25226 14.7251 4.87691Z" fill="#9C8A4C"/>
</g>
<defs>
<clipPath id="clip0_1125_4224">
<rect width="16" height="12" fill="white"/>
</clipPath>
</defs>
</svg>
